<svg width="24" height="25" viewBox="0 0 24 25" fill="none" xmlns="http://www.w3.org/2000/svg">
<rect y="0.121948" width="24" height="24" fill="#C69B7B"/>
<path d="M6 7.73521C6 7.35041 6.13514 7.03295 6.40541 6.78283C6.67567 6.53271 7.02703 6.40765 7.45946 6.40765C7.88417 6.40765 8.2278 6.53078 8.49035 6.77706C8.76061 7.03103 8.89575 7.36195 8.89575 7.76985C8.89575 8.13925 8.76448 8.44709 8.50193 8.69337C8.23166 8.94734 7.87645 9.07432 7.43629 9.07432H7.42471C7 9.07432 6.65637 8.94734 6.39382 8.69337C6.13127 8.4394 6 8.12001 6 7.73521ZM6.15058 17.8362V10.1248H8.72201V17.8362H6.15058ZM10.1467 17.8362H12.7181V13.5303C12.7181 13.2609 12.749 13.0531 12.8108 12.9069C12.9189 12.6453 13.083 12.424 13.3031 12.2431C13.5232 12.0623 13.7992 11.9719 14.1313 11.9719C14.9961 11.9719 15.4286 12.5529 15.4286 13.715V17.8362H18V13.4149C18 12.2759 17.7297 11.412 17.1892 10.8232C16.6486 10.2345 15.9344 9.94012 15.0463 9.94012C14.0502 9.94012 13.2741 10.3672 12.7181 11.2215V11.2446H12.7066L12.7181 11.2215V10.1248H10.1467C10.1622 10.3711 10.1699 11.1368 10.1699 12.4221C10.1699 13.7073 10.1622 15.512 10.1467 17.8362Z" fill="white"/>
</svg>
