<svg width="24" height="25" viewBox="0 0 24 25" fill="none" xmlns="http://www.w3.org/2000/svg">
<rect y="0.121948" width="24" height="24" fill="#C69B7B"/>
<path d="M12 6.12195C14.3966 6.12195 15.5949 6.12219 16.458 6.69324C16.8435 6.94827 17.1737 7.2785 17.4287 7.66394C17.9998 8.52709 18 9.72531 18 12.1219C18 14.5186 17.9998 15.7168 17.4287 16.58C17.1737 16.9654 16.8435 17.2956 16.458 17.5507C15.5949 18.1217 14.3966 18.1219 12 18.1219C9.60336 18.1219 8.40514 18.1217 7.54199 17.5507C7.15655 17.2956 6.82633 16.9654 6.57129 16.58C6.00025 15.7168 6 14.5186 6 12.1219C6 9.72531 6.00025 8.52709 6.57129 7.66394C6.82633 7.2785 7.15655 6.94827 7.54199 6.69324C8.40514 6.12219 9.60336 6.12195 12 6.12195ZM12 9.0155C10.2845 9.0155 8.89364 10.4065 8.89355 12.1219C8.89355 13.8375 10.2845 15.2284 12 15.2284C13.7155 15.2283 15.1064 13.8375 15.1064 12.1219C15.1064 10.4065 13.7154 9.01556 12 9.0155ZM12 10.0663C13.135 10.0663 14.0556 10.9869 14.0557 12.1219C14.0557 13.257 13.1351 14.1776 12 14.1776C10.8649 14.1776 9.94434 13.2571 9.94434 12.1219C9.94442 10.9869 10.8649 10.0663 12 10.0663ZM15.2285 8.12976C14.8256 8.12994 14.499 8.45724 14.499 8.86023C14.4993 9.26301 14.8257 9.58954 15.2285 9.58972C15.6315 9.58972 15.9587 9.26312 15.959 8.86023C15.959 8.45713 15.6316 8.12976 15.2285 8.12976Z" fill="white"/>
</svg>
