<svg width="20" height="20" viewBox="0 0 20 20" fill="none" xmlns="http://www.w3.org/2000/svg">
<path d="M9.89648 0.103638C13.8496 0.103638 15.8263 0.104019 17.25 1.04602C17.8856 1.46665 18.43 2.01096 18.8506 2.64661C19.7926 4.07029 19.793 6.04696 19.793 10.0001C19.793 13.9532 19.7926 15.93 18.8506 17.3536C18.43 17.9893 17.8856 18.5336 17.25 18.9542C15.8263 19.8962 13.8496 19.8966 9.89648 19.8966C5.94332 19.8966 3.96665 19.8962 2.54297 18.9542C1.90732 18.5336 1.36301 17.9893 0.942383 17.3536C0.000381305 15.93 1.32419e-10 13.9532 0 10.0001C0 6.04693 0.000370136 4.07029 0.942383 2.64661C1.36301 2.01094 1.9073 1.46664 2.54297 1.04602C3.96665 0.104008 5.94329 0.103638 9.89648 0.103638ZM9.89551 4.87708C7.06598 4.87715 4.77248 7.17058 4.77246 10.0001C4.77246 12.8297 7.06597 15.1231 9.89551 15.1232C12.7251 15.1232 15.0195 12.8297 15.0195 10.0001C15.0195 7.17053 12.7251 4.87708 9.89551 4.87708ZM9.89551 6.61047C11.7678 6.61047 13.2861 8.12787 13.2861 10.0001C13.2861 11.8724 11.7678 13.3898 9.89551 13.3898C8.0233 13.3897 6.50586 11.8723 6.50586 10.0001C6.50588 8.12792 8.02332 6.61055 9.89551 6.61047ZM15.2217 3.41516C14.557 3.4154 14.0186 3.95458 14.0186 4.61926C14.0186 5.28399 14.557 5.82313 15.2217 5.82336C15.8866 5.82336 16.4258 5.28414 16.4258 4.61926C16.4257 3.95444 15.8865 3.41516 15.2217 3.41516Z" fill="#C69B7B"/>
</svg>
