<svg width="64" height="62" viewBox="0 0 64 62" fill="none" xmlns="http://www.w3.org/2000/svg">
<mask id="path-1-inside-1_454_9448" fill="white">
<path d="M1.58657 33.0507C0.805526 32.2697 0.805528 31.0034 1.58658 30.2223L6.18081 25.6281C10.8671 20.9418 18.4651 20.9418 23.1514 25.6281L27.7456 30.2223C28.5267 31.0034 28.5267 32.2697 27.7456 33.0507L23.1514 37.645C18.4651 42.3313 10.8671 42.3313 6.18081 37.645L1.58657 33.0507Z"/>
</mask>
<path d="M1.58657 33.0507C0.805526 32.2697 0.805528 31.0034 1.58658 30.2223L6.18081 25.6281C10.8671 20.9418 18.4651 20.9418 23.1514 25.6281L27.7456 30.2223C28.5267 31.0034 28.5267 32.2697 27.7456 33.0507L23.1514 37.645C18.4651 42.3313 10.8671 42.3313 6.18081 37.645L1.58657 33.0507Z" stroke="#C69B7B" stroke-width="8" mask="url(#path-1-inside-1_454_9448)"/>
<mask id="path-2-inside-2_454_9448" fill="white">
<path d="M35.6896 33.0507C34.9086 32.2697 34.9086 31.0034 35.6896 30.2223L40.2838 25.6281C44.9701 20.9418 52.5681 20.9418 57.2544 25.6281L61.8486 30.2223C62.6297 31.0034 62.6297 32.2697 61.8486 33.0507L57.2544 37.645C52.5681 42.3313 44.9701 42.3313 40.2838 37.645L35.6896 33.0507Z"/>
</mask>
<path d="M35.6896 33.0507C34.9086 32.2697 34.9086 31.0034 35.6896 30.2223L40.2838 25.6281C44.9701 20.9418 52.5681 20.9418 57.2544 25.6281L61.8486 30.2223C62.6297 31.0034 62.6297 32.2697 61.8486 33.0507L57.2544 37.645C52.5681 42.3313 44.9701 42.3313 40.2838 37.645L35.6896 33.0507Z" stroke="#C69B7B" stroke-width="8" mask="url(#path-2-inside-2_454_9448)"/>
<mask id="path-3-inside-3_454_9448" fill="white">
<path d="M30.3036 1.50557C31.0846 0.724517 32.3509 0.724519 33.132 1.50557L37.7262 6.0998C42.4125 10.7861 42.4125 18.3841 37.7262 23.0704L33.132 27.6646C32.3509 28.4456 31.0846 28.4456 30.3036 27.6646L25.7093 23.0704C21.023 18.3841 21.023 10.7861 25.7093 6.0998L30.3036 1.50557Z"/>
</mask>
<path d="M30.3036 1.50557C31.0846 0.724517 32.3509 0.724519 33.132 1.50557L37.7262 6.0998C42.4125 10.7861 42.4125 18.3841 37.7262 23.0704L33.132 27.6646C32.3509 28.4456 31.0846 28.4456 30.3036 27.6646L25.7093 23.0704C21.023 18.3841 21.023 10.7861 25.7093 6.0998L30.3036 1.50557Z" stroke="#C69B7B" stroke-width="8" mask="url(#path-3-inside-3_454_9448)"/>
<mask id="path-4-inside-4_454_9448" fill="white">
<path d="M30.0794 33.9142C30.8605 33.1332 32.1268 33.1332 32.9079 33.9142L37.5021 38.5084C42.1884 43.1947 42.1884 50.7927 37.5021 55.479L32.9079 60.0732C32.1268 60.8543 30.8605 60.8543 30.0794 60.0732L25.4852 55.479C20.7989 50.7927 20.7989 43.1947 25.4852 38.5084L30.0794 33.9142Z"/>
</mask>
<path d="M30.0794 33.9142C30.8605 33.1332 32.1268 33.1332 32.9079 33.9142L37.5021 38.5084C42.1884 43.1947 42.1884 50.7927 37.5021 55.479L32.9079 60.0732C32.1268 60.8543 30.8605 60.8543 30.0794 60.0732L25.4852 55.479C20.7989 50.7927 20.7989 43.1947 25.4852 38.5084L30.0794 33.9142Z" stroke="#C69B7B" stroke-width="8" mask="url(#path-4-inside-4_454_9448)"/>
</svg>
