<svg width="24" height="25" viewBox="0 0 24 25" fill="none" xmlns="http://www.w3.org/2000/svg">
<rect y="0.121948" width="24" height="24" fill="#C69B7B"/>
<path d="M14.018 7.25619V7.25403H14.5807L14.7863 7.29509C14.9234 7.32175 15.0478 7.35668 15.1596 7.3999C15.2714 7.44313 15.3796 7.49356 15.4842 7.55118C15.5888 7.60881 15.6837 7.66753 15.7688 7.72731C15.8532 7.78639 15.929 7.84906 15.996 7.91533C16.0624 7.98233 16.1659 7.99962 16.3066 7.9672C16.4473 7.93478 16.5987 7.88975 16.761 7.83213C16.9234 7.7745 17.0839 7.70967 17.2426 7.63763C17.4013 7.56559 17.4979 7.51985 17.5326 7.5004C17.5665 7.48023 17.5845 7.46943 17.5867 7.46798L17.5888 7.46474L17.5996 7.45933L17.6105 7.45393L17.6213 7.44853L17.6321 7.44313L17.6343 7.43988L17.6375 7.43772L17.6408 7.43556L17.6429 7.43232L17.6537 7.42908L17.6646 7.42692L17.6624 7.44313L17.6592 7.45933L17.6537 7.47554L17.6483 7.49175L17.6429 7.50256L17.6375 7.51336L17.6321 7.52957C17.6285 7.54038 17.6249 7.55478 17.6213 7.57279C17.6177 7.59081 17.5834 7.66284 17.5185 7.78891C17.4536 7.91497 17.3724 8.04284 17.275 8.1725C17.1776 8.30217 17.0904 8.40014 17.0132 8.46642C16.9353 8.53341 16.8837 8.58023 16.8584 8.60689C16.8332 8.63426 16.8025 8.65947 16.7665 8.68253L16.7124 8.71819L16.7015 8.72359L16.6907 8.72899L16.6886 8.73224L16.6853 8.7344L16.6821 8.73656L16.6799 8.7398L16.6691 8.7452L16.6583 8.7506L16.6561 8.75385L16.6528 8.75601L16.6496 8.75817L16.6474 8.76141L16.6453 8.76465L16.642 8.76681L16.6388 8.76897L16.6366 8.77222H16.6907L16.9937 8.70738C17.1957 8.66416 17.3886 8.61194 17.5726 8.5507L17.8647 8.45345L17.8972 8.44264L17.9134 8.43724L17.9243 8.43184L17.9351 8.42644L17.9459 8.42103L17.9567 8.41563L17.9784 8.41239L18 8.41023V8.43184L17.9946 8.434L17.9892 8.43724L17.987 8.44048L17.9838 8.44264L17.9805 8.44481L17.9784 8.44805L17.9762 8.45129L17.9729 8.45345L17.9697 8.45561L17.9675 8.45885L17.9654 8.4621L17.9621 8.46426L17.9567 8.47506L17.9513 8.48587L17.9481 8.48803C17.9466 8.49019 17.9008 8.55141 17.8106 8.67172C17.7205 8.79275 17.6718 8.85397 17.6646 8.85542C17.6574 8.85758 17.6472 8.86839 17.6343 8.88784C17.622 8.908 17.5455 8.98833 17.4049 9.1288C17.2642 9.26927 17.1264 9.39425 16.9915 9.50376C16.8559 9.61397 16.7874 9.7494 16.7859 9.91005C16.7838 10.07 16.7755 10.2508 16.761 10.4525C16.7466 10.6542 16.7196 10.8721 16.6799 11.1062C16.6402 11.3404 16.5789 11.6051 16.4959 11.9004C16.413 12.1958 16.312 12.4839 16.193 12.7649C16.0739 13.0458 15.9495 13.298 15.8197 13.5213C15.6898 13.7446 15.5708 13.9337 15.4626 14.0886C15.3544 14.2435 15.2444 14.3893 15.1326 14.5262C15.0207 14.6631 14.8794 14.8172 14.7084 14.9887C14.5367 15.1594 14.4429 15.2531 14.4271 15.2696C14.4105 15.2855 14.3398 15.3446 14.215 15.4468C14.0909 15.5498 13.9574 15.6529 13.8146 15.7559C13.6725 15.8582 13.5419 15.9435 13.4229 16.012C13.3039 16.0804 13.1603 16.1586 12.9922 16.2465C12.8249 16.3351 12.6438 16.4172 12.4491 16.4928C12.2543 16.5685 12.0487 16.6387 11.8323 16.7035C11.6159 16.7684 11.4067 16.8188 11.2047 16.8548C11.0027 16.8908 10.7737 16.9214 10.5176 16.9467L10.1335 16.9845V16.9899H9.43012V16.9845L9.33814 16.9791C9.27683 16.9755 9.22633 16.9719 9.18665 16.9683C9.14699 16.9647 8.99729 16.9449 8.7376 16.9088C8.47791 16.8728 8.27412 16.8368 8.12624 16.8008C7.97837 16.7648 7.75834 16.6963 7.46619 16.5955C7.17403 16.4946 6.92408 16.3927 6.71632 16.2897C6.50929 16.1874 6.37944 16.1225 6.32678 16.0952C6.27484 16.0685 6.21641 16.0354 6.15149 15.9958L6.0541 15.9363L6.05195 15.9331L6.04869 15.9309L6.04545 15.9288L6.04328 15.9255L6.03246 15.9201L6.02164 15.9147L6.01949 15.9115L6.01623 15.9093L6.01298 15.9072L6.01082 15.9039L6.00867 15.9007L6.00541 15.8985H6V15.8769L6.01082 15.8791L6.02164 15.8823L6.07033 15.8877C6.1028 15.8913 6.19117 15.8967 6.33544 15.9039C6.47972 15.9111 6.633 15.9111 6.79531 15.9039C6.95762 15.8967 7.12354 15.8805 7.29306 15.8553C7.46258 15.8301 7.66276 15.7869 7.8936 15.7256C8.12444 15.6644 8.33653 15.5916 8.52986 15.5073C8.72246 15.4224 8.85952 15.359 8.94104 15.3172C9.02183 15.2761 9.14518 15.1997 9.31109 15.0881L9.55996 14.9206L9.56213 14.9174L9.56537 14.9152L9.56863 14.913L9.57078 14.9098L9.57295 14.9066L9.57619 14.9044L9.57945 14.9022L9.58161 14.899L9.59243 14.8958L9.60325 14.8936L9.60541 14.8828L9.60866 14.872L9.61191 14.8698L9.61407 14.8666L9.5275 14.8612C9.4698 14.8576 9.41389 14.854 9.35978 14.8504C9.30568 14.8468 9.22092 14.8306 9.1055 14.8017C8.99009 14.7729 8.86565 14.7297 8.73219 14.6721C8.59874 14.6144 8.46889 14.546 8.34265 14.4668C8.21642 14.3875 8.12516 14.3216 8.06889 14.269C8.01335 14.2171 7.94121 14.1437 7.85248 14.0486C7.76448 13.9528 7.68801 13.8544 7.62308 13.7536C7.55816 13.6528 7.49613 13.5364 7.43698 13.4046L7.34716 13.2079L7.34175 13.1917L7.33634 13.1755L7.33309 13.1647L7.33093 13.1539L7.34716 13.156L7.36339 13.1593L7.48242 13.1755C7.56177 13.1863 7.68621 13.1899 7.85573 13.1863C8.02525 13.1827 8.14247 13.1755 8.20739 13.1647C8.27232 13.1539 8.312 13.1467 8.32642 13.1431L8.34806 13.1377L8.37511 13.1323L8.40216 13.1269L8.40433 13.1236L8.40757 13.1215L8.41083 13.1193L8.41298 13.1161L8.39134 13.1107L8.3697 13.1053L8.34806 13.0999L8.32642 13.0945L8.30478 13.0891C8.29036 13.0855 8.26511 13.0782 8.22904 13.0674C8.19297 13.0566 8.09559 13.017 7.93688 12.9486C7.77819 12.8802 7.65194 12.8135 7.55816 12.7487C7.46415 12.6837 7.3745 12.6125 7.28981 12.5358C7.20541 12.458 7.11272 12.3579 7.01172 12.2354C6.91073 12.113 6.82057 11.9707 6.74121 11.8086C6.66186 11.6465 6.60235 11.4916 6.56267 11.3439C6.52315 11.1971 6.49708 11.047 6.48477 10.8955L6.46528 10.6686L6.4761 10.6708L6.48693 10.674L6.49775 10.6794L6.50857 10.6848L6.51939 10.6902L6.53021 10.6956L6.69793 10.7713C6.80975 10.8217 6.94861 10.8649 7.11452 10.9009C7.28044 10.9369 7.37962 10.9568 7.41208 10.9604L7.46078 10.9658H7.55816L7.55601 10.9625L7.55275 10.9604L7.5495 10.9582L7.54734 10.9549L7.54519 10.9517L7.54193 10.9495L7.53868 10.9474L7.53652 10.9441L7.5257 10.9387L7.51488 10.9333L7.51272 10.9301L7.50947 10.9279L7.50622 10.9258L7.50406 10.9225L7.49324 10.9171L7.48242 10.9117L7.48026 10.9085C7.4781 10.907 7.44708 10.884 7.3872 10.8393C7.32804 10.7939 7.26601 10.7352 7.20108 10.6632C7.13616 10.5912 7.07124 10.5155 7.00631 10.4363C6.94127 10.3569 6.88334 10.2719 6.83318 10.1823C6.78269 10.0923 6.72931 9.97775 6.67304 9.83873C6.6175 9.70042 6.5753 9.56102 6.54644 9.42055C6.51759 9.28008 6.50136 9.14141 6.49775 9.00454C6.49414 8.86766 6.49775 8.7506 6.50857 8.65335C6.51939 8.5561 6.54103 8.44624 6.57349 8.32378C6.60595 8.20132 6.65285 8.07166 6.71416 7.93478L6.80613 7.72947L6.81154 7.71327L6.81695 7.69706L6.82021 7.6949L6.82236 7.69166L6.82453 7.68841L6.82777 7.68625L6.83103 7.68841L6.83318 7.69166L6.83535 7.6949L6.83859 7.69706L6.84185 7.69922L6.844 7.70246L6.84617 7.7057L6.84941 7.70786L6.85482 7.71867L6.86023 7.72947L6.86349 7.73164L6.86564 7.73488L7.01172 7.89696C7.10911 8.00502 7.22453 8.12568 7.35798 8.25895C7.49144 8.39222 7.56538 8.46137 7.5798 8.46642C7.59424 8.47218 7.61226 8.48874 7.6339 8.51612C7.65555 8.54278 7.72769 8.60653 7.85032 8.70738C7.97296 8.80823 8.13346 8.9253 8.33183 9.05856C8.53021 9.19183 8.75023 9.3233 8.99188 9.45297C9.23355 9.58264 9.49324 9.69969 9.77096 9.80415C10.0487 9.90861 10.2435 9.97704 10.3553 10.0095C10.4671 10.0419 10.6583 10.0833 10.9288 10.1337C11.1993 10.1842 11.4031 10.2166 11.5401 10.231C11.6772 10.2454 11.771 10.2537 11.8215 10.2558L11.8972 10.258L11.8951 10.2418L11.8918 10.2256L11.8702 10.0905C11.8557 10.0005 11.8485 9.87439 11.8485 9.7123C11.8485 9.55022 11.8611 9.40075 11.8864 9.26387C11.9116 9.127 11.9495 8.98833 12 8.84786C12.0505 8.70738 12.0999 8.59464 12.1482 8.50964C12.1973 8.42536 12.2615 8.32919 12.3408 8.22113C12.4202 8.11307 12.523 8.00142 12.6492 7.88616C12.7755 7.77089 12.9197 7.66824 13.0821 7.5782C13.2444 7.48815 13.3941 7.41971 13.5311 7.37289C13.6682 7.32607 13.7836 7.29545 13.8774 7.28104C13.9711 7.26664 14.018 7.25835 14.018 7.25619Z" fill="white"/>
</svg>
