<svg width="24" height="25" viewBox="0 0 24 25" fill="none" xmlns="http://www.w3.org/2000/svg">
<rect y="0.121948" width="24" height="24" fill="#C69B7B"/>
<path d="M12.2923 16.7752L9.58421 16.7246C8.70738 16.707 7.82837 16.7422 6.96873 16.5595C5.66102 16.2865 5.56837 14.9479 5.47143 13.825C5.33786 12.2465 5.38957 10.6393 5.64164 9.07387C5.78395 8.19553 6.34397 7.67141 7.21002 7.61438C10.1336 7.4074 13.0766 7.43193 15.9937 7.52849C16.3018 7.53734 16.612 7.58573 16.9157 7.6408C18.4153 7.90941 18.4519 9.42635 18.5491 10.7033C18.646 11.9935 18.6051 13.2902 18.4198 14.5716C18.2711 15.6325 17.9867 16.5222 16.7865 16.6081C15.2826 16.7204 13.8133 16.8108 12.3052 16.7821C12.3053 16.7752 12.2966 16.7752 12.2923 16.7752ZM10.7002 14.0892C11.8335 13.4243 12.9451 12.7704 14.0719 12.11C12.9365 11.445 11.827 10.7912 10.7002 10.1307V14.0892Z" fill="white"/>
</svg>
